<?xml version="1.0" encoding="utf-8"?>
<!-- Generator: Adobe Illustrator 27.0.1, SVG Export Plug-In . SVG Version: 6.00 Build 0)  -->
<svg version="1.1" id="Layer_1" xmlns="http://www.w3.org/2000/svg" xmlns:xlink="http://www.w3.org/1999/xlink" x="0px" y="0px"
	 width="620px" height="620px" viewBox="0 0 620 620" enable-background="new 0 0 620 620" xml:space="preserve">
<path fill="#FFFFFF" d="M221.18,214.346c12.965,0,23.286,7.012,25.932,10.45l6.087-14.024c-3.705-3.703-14.026-11.244-31.887-11.244
	c-26.46,0-47.364,18.125-47.364,47.1c0,28.973,20.64,47.1,47.364,47.1c17.995,0,27.918-7.408,33.077-12.967l-6.087-12.965
	c-5.424,5.824-13.891,11.115-26.064,11.115c-18.256,0-30.563-12.832-30.563-32.546C191.676,224.797,205.304,214.346,221.18,214.346"
	/>
<polygon fill="#FFFFFF" points="360.247,200.719 360.247,292.14 407.949,292.14 413.575,277.852 377.315,277.852 377.315,200.719 
	"/>
<polygon fill="#FFFFFF" points="311.706,200.719 295.036,200.719 259.18,292.14 277.041,292.14 "/>
<polygon fill="#FFFFFF" points="328.772,292.141 347.56,292.141 311.706,200.719 307.002,231.345 316.601,257.346 303.01,257.346 
	300.896,271.103 320.835,271.103 "/>
<polygon fill="#FFFFFF" points="460.709,271.103 480.65,271.103 488.585,292.141 507.374,292.141 471.521,200.719 454.849,200.719 
	418.995,292.141 436.855,292.141 471.519,200.719 466.817,231.345 476.416,257.344 462.823,257.344 "/>
<polygon fill="#FFFFFF" points="109.255,45.954 109.255,447.303 457.302,447.303 489.786,447.303 509.766,447.303 509.766,343.206 
	492.698,343.206 492.698,430.235 489.786,430.235 457.302,430.235 126.321,430.235 126.321,63.02 492.698,63.02 492.698,149.653 
	509.766,149.653 509.766,45.954 "/>
<rect x="91.231" y="491.088" fill="#FAAF23" width="436.558" height="82.126"/>
<polygon fill="#FAAF23" points="14.971,472.135 42.722,513.161 14.971,554.261 70.474,554.261 70.474,472.135 "/>
<polygon fill="#FAAF23" points="548.547,472.135 548.547,554.261 604.05,554.261 576.298,513.161 604.05,472.135 "/>
<g>
	<path d="M133.358,518.304c5.688,0,8.273-1.939,9.76-6.205h5.946v40.85h-8.08v-29.345h-7.627V518.304z"/>
	<path d="M189.594,519.402h-18.615c-0.064,2.003-0.776,7.433-1.164,9.243c1.681-1.681,4.46-3.168,8.532-3.168
		c9.372,0,14.09,6.205,14.09,13.897c0,8.726-6.27,14.349-15.189,14.349c-10.277,0-15.9-5.946-15.577-15.125l7.886,0.582
		c0,4.912,2.714,8.015,7.756,8.015c4.589,0,7.498-2.973,7.498-7.756c0-4.396-2.715-7.757-7.433-7.757
		c-3.62,0-5.882,1.811-7.175,4.008l-7.885-0.582c1.034-5.623,2.456-16.159,2.65-22.881h24.626V519.402z"/>
	<path d="M219.784,553.724c-10.859,0-17.581-7.627-17.581-21.136s6.722-21.136,17.581-21.136c10.923,0,17.646,7.627,17.646,21.136
		S230.707,553.724,219.784,553.724z M219.784,517.98c-6.27,0-9.049,4.782-9.049,14.607c0,9.824,2.78,14.607,9.049,14.607
		c6.334,0,9.114-4.783,9.114-14.607C228.897,522.763,226.118,517.98,219.784,517.98z"/>
	<path d="M294.832,512.228h8.726l-15.771,25.014v15.707h-7.885v-15.707l-15.771-25.014h8.984l11.053,17.258L294.832,512.228z"/>
	<path d="M344.414,552.948H313.97v-40.721h29.862v6.722H321.92v9.89h17.193v6.657H321.92v10.729h22.494V552.948z"/>
	<path d="M378.869,512.228l16.611,40.721h-8.597l-4.072-10.083h-17.322l-3.942,10.083h-8.145l16.482-40.721H378.869z
		 M367.945,536.66h12.41l-6.14-15.255h-0.259L367.945,536.66z"/>
	<path d="M432.134,552.948c-0.84-1.099-1.357-3.878-1.68-8.402c-0.323-4.59-2.392-6.658-7.046-6.658h-9.566v15.061h-7.95v-40.721
		h18.422c10.406,0,15.513,4.848,15.513,12.41c0,6.141-4.008,9.695-8.984,10.342c4.653,0.904,7.045,3.619,7.497,8.402
		c0.518,6.012,0.711,8.08,2.068,9.566H432.134z M423.215,531.554c5.882,0,8.597-1.939,8.597-6.334c0-4.072-2.715-6.464-8.597-6.464
		h-9.373v12.798H423.215z"/>
	<path d="M457.478,538.146c0.322,6.334,4.912,9.179,10.6,9.179c5.042,0,8.273-2.004,8.273-5.43c0-3.103-2.456-4.266-6.722-5.106
		l-7.757-1.422c-6.334-1.163-10.729-4.653-10.729-11.376c0-7.627,6.012-12.539,15.513-12.539c10.665,0,16.676,5.494,16.806,14.543
		l-7.434,0.259c-0.258-5.56-3.878-8.468-9.437-8.468c-4.783,0-7.498,2.133-7.498,5.623c0,2.974,2.133,4.008,5.817,4.719l7.498,1.357
		c8.015,1.486,11.764,5.3,11.764,11.893c0,8.016-6.916,12.346-16.095,12.346c-10.471,0-18.033-5.43-18.033-15.254L457.478,538.146z"
		/>
</g>
</svg>
